/* XPM */
const char *stop_xpm[] = {
/* width height num_colors chars_per_pixel */
"    16    16        8            1",
/* colors */
"` c #ff352a",
". c #ffa18d",
"# c #ff6e56",
"a c #ffd1c0",
"b c #ff8972",
"c c #ff5340",
"d c #ffbdaa",
"e c #ffffff",
/* pixels */
"eeeeeeeeeeeeeeee",
"eeee.......beeee",
"eee.daaaaaa.beee",
"ee..ad.....db#ee",
"e..ad.....b.db#e",
"e.ad....bbbbb.#e",
"e.a...bbbbb##.#e",
"ebd.bbbbb####.#e",
"ebdbbbb#####c.ce",
"ebdbb#####ccc.ce",
"ebdb####cccc#bce",
"e#b.bcccccc#.c`e",
"eec#.#ccc`#.c`ee",
"eeec#..bbbbc`eee",
"eeee`ccccc``eeee",
"eeeeeeeeeeeeeeee"
};

/* XPM */
const char * breakpoint_xpm[] = {
"16 16 145 2",
"  	c None",
"! 	c black",
"# 	c #FF5320",
"$ 	c #FF6535",
"% 	c #FF7345",
"& 	c #FF6E40",
"' 	c #FF5425",
"( 	c #FF3B07",
") 	c #FF7B4A",
"* 	c #FFC69E",
"+ 	c #FFD9B0",
", 	c #FFC395",
"- 	c #FFB082",
". 	c #FFA476",
"0 	c #FF8557",
"1 	c #FF4615",
"2 	c #FF9162",
"3 	c #FFF0C8",
"4 	c #FFD7A5",
"5 	c #FFBF85",
"6 	c #FFB179",
"7 	c #FFA46F",
"8 	c #FF9764",
"9 	c #FF8B5A",
": 	c #FE8354",
"; 	c #FA491A",
"< 	c #FF7444",
"= 	c #FFE7C0",
"> 	c #FFD39D",
"? 	c #FFC68B",
"@ 	c #FFBB82",
"A 	c #FFB079",
"B 	c #FFA26D",
"C 	c #FF8958",
"D 	c #FF7D4E",
"E 	c #FF7848",
"F 	c #EB330A",
"G 	c #FF4C1C",
"H 	c #FFB992",
"I 	c #FFCDA0",
"J 	c #FFC085",
"K 	c #FFBD84",
"L 	c #FFB57D",
"M 	c #FFAB73",
"N 	c #FF9E6B",
"O 	c #FF9261",
"P 	c #FF8655",
"Q 	c #FF794B",
"R 	c #FF7344",
"S 	c #EF532B",
"T 	c #D91C00",
"U 	c #FF5829",
"V 	c #FFD0AC",
"W 	c #FFB47D",
"X 	c #FFB37B",
"Y 	c #FFAB75",
"Z 	c #FFA36E",
"[ 	c #FF8C5C",
"] 	c #FF8151",
"^ 	c #FF7648",
"_ 	c #FF6F40",
"` 	c #F76033",
"a 	c #D41E03",
"b 	c #FF6736",
"c 	c #FFBD95",
"d 	c #FFA672",
"e 	c #FFA570",
"f 	c #FFA06C",
"g 	c #FF9966",
"h 	c #FF905D",
"i 	c #FF8556",
"j 	c #FF7B4C",
"k 	c #FF7244",
"l 	c #FF6C3C",
"m 	c #F3592E",
"n 	c #D12308",
"o 	c #FF5F30",
"p 	c #FFAC83",
"q 	c #FF9864",
"r 	c #FF9361",
"s 	c #FF8D5C",
"t 	c #FF7546",
"u 	c #FF6E3F",
"v 	c #FF6738",
"w 	c #EC4F27",
"x 	c #CC1F07",
"y 	c #FF4513",
"z 	c #FFA077",
"{ 	c #FF8B59",
"| 	c #FF8C5B",
"} 	c #FF8C5A",
"~ 	c #FF8757",
" !	c #FF8252",
"!!	c #FF7B4D",
"#!	c #FF7548",
"$!	c #FF6839",
"%!	c #FF6432",
"&!	c #E2421F",
"'!	c #C11602",
"(!	c #FC2D00",
")!	c #FE7F54",
"*!	c #FF7F4F",
"+!	c #FF7F50",
",!	c #FF7E4F",
"-!	c #FF7749",
".!	c #FF6A39",
"0!	c #FF6534",
"1!	c #F05027",
"2!	c #D73215",
"3!	c #B70B00",
"4!	c #F84316",
"5!	c #FF7A4C",
"6!	c #FF7446",
"7!	c #FF7243",
"8!	c #FF6B3C",
"9!	c #FF6333",
":!	c #FA582A",
";!	c #DE3B1A",
"<!	c #BF1704",
"=!	c #FF2900",
">!	c #F24419",
"?!	c #FF7241",
"@!	c #FF6D3D",
"A!	c #FF6A3B",
"B!	c #FF6837",
"C!	c #FF6231",
"D!	c #F35026",
"E!	c #DF3B1A",
"F!	c #C51E09",
"G!	c #FD2200",
"H!	c #E3300B",
"I!	c #F3552A",
"J!	c #FB6031",
"K!	c #F8592D",
"L!	c #F15126",
"M!	c #E5441E",
"N!	c #D93315",
"O!	c #BD1706",
"P!	c #C50900",
"Q!	c #CC1600",
"R!	c #C91C04",
"S!	c #CB2009",
"T!	c #C71E08",
"U!	c #BD1202",
"V!	c #B10800",
"                                ",
"          # $ % & ' (           ",
"        ) * + , - . 0 1         ",
"      2 3 4 5 6 7 8 9 : ;       ",
"    < = > ? @ A B 8 C D E F     ",
"  G H I J K L M N O P Q R S T   ",
"  U V W X A Y Z 8 [ ] ^ _ ` a   ",
"  b c 7 d e f g h i j k l m n   ",
"  o p q g 8 r s P D t u v w x   ",
"  y z { | } ~  !!!#!_ $!%!&!'!  ",
"  (!)!*!+!,!!!-!R u .!0!1!2!3!  ",
"    4!5!6!% 7!_ 8!$!9!:!;!<!    ",
"    =!>!?!@!A!B!$ C!D!E!F!      ",
"      G!H!I!J!K!L!M!N!O!P!      ",
"          Q!R!S!T!U!V!          ",
"                                "};

