/* XPM */
static char * c_xpm[] = {
"16 16 88 1",
" 	c None",
".	c #DEDEDE",
"+	c #E9E9E9",
"@	c #EAEAEA",
"#	c #EBEBEB",
"$	c #E6E6E6",
"%	c #D5D5D5",
"&	c #EFEFEF",
"*	c #FAFAFA",
"=	c #FBFBFB",
"-	c #FCFCFC",
";	c #FDFDFD",
">	c #F3F3F3",
",	c #CFCFCF",
"'	c #F2F1EF",
")	c #FDFCFA",
"!	c #FCFBFA",
"~	c #DADADA",
"{	c #D4D4D4",
"]	c #A3B1D7",
"^	c #9CADD9",
"/	c #CAD2E6",
"(	c #F9F9F8",
"_	c #FAFAF9",
":	c #FAF9F9",
"<	c #E5E5E5",
"[	c #D0D0D0",
"}	c #607CCC",
"|	c #667DC2",
"1	c #7489C7",
"2	c #909FCD",
"3	c #FCFBFB",
"4	c #FFFFFF",
"5	c #F9F9F9",
"6	c #5C76C2",
"7	c #0A2F99",
"8	c #FBF8F0",
"9	c #F8F8F8",
"0	c #E5E7EE",
"a	c #DEE1E9",
"b	c #EAEBED",
"c	c #294CB0",
"d	c #F5F4F1",
"e	c #ECEEF2",
"f	c #F9FAFC",
"g	c #CAD0DD",
"h	c #123EAC",
"i	c #0E40AF",
"j	c #E8EAEC",
"k	c #F1F2F4",
"l	c #EDEFF3",
"m	c #FCFBF8",
"n	c #FBFAF7",
"o	c #F6F6F5",
"p	c #EBEBE9",
"q	c #F6F5F3",
"r	c #EBEBEA",
"s	c #356FD5",
"t	c #4984E1",
"u	c #5893E9",
"v	c #91B3E4",
"w	c #E5E9EF",
"x	c #EAEDEF",
"y	c #F3F2F2",
"z	c #F1F1F1",
"A	c #EEEEEE",
"B	c #DEE3EA",
"C	c #A7BCD9",
"D	c #B2C6E1",
"E	c #DFE2E7",
"F	c #F2F2F2",
"G	c #E7E7E7",
"H	c #F4F3F3",
"I	c #F0F0F0",
"J	c #EDEDED",
"K	c #ECECEC",
"L	c #E8E8E8",
"M	c #E3E3E3",
"N	c #E2E2E2",
"O	c #E4E4E4",
"P	c #E1E1E1",
"Q	c #C0C0C0",
"R	c #C5C5C5",
"S	c #C4C4C4",
"T	c #C3C3C3",
"U	c #C2C2C2",
"V	c #C1C1C1",
"W	c #BDBDBD",
"  .++@@#@$%     ",
"  &**==--;>,    ",
"  ')!**=--;~{   ",
"  ]^/(_:*=-$<[  ",
" }|12344*5=4-&  ",
"678_90444444ab  ",
"c d9e44f44444g  ",
"hijklm44nop4qr  ",
" stuvowxyzABA+  ",
"  CDE>Fz&&AAAG  ",
"  @HFI&AAAJJK$  ",
"  LI&AAAJJK##<  ",
"  $AAAJKK#@@+M  ",
"  <JJK##@+LLGN  ",
"  OKK##@+LGG$P  ",
"  QRRSTTUVVVVW  "};
