/* XPM */
static char * cpp_xpm[] = {
"16 16 107 2",
"  	c None",
". 	c #DEDEDE",
"+ 	c #E9E9E9",
"@ 	c #EAEAEA",
"# 	c #EBEBEB",
"$ 	c #E6E6E6",
"% 	c #D5D5D5",
"& 	c #EFEFEF",
"* 	c #FAFAFA",
"= 	c #FBFBFB",
"- 	c #FCFCFC",
"; 	c #FDFDFD",
"> 	c #F3F3F3",
", 	c #CFCFCF",
"' 	c #F2F1EF",
") 	c #FDFCFA",
"! 	c #FCFBFA",
"~ 	c #DADADA",
"{ 	c #D4D4D4",
"] 	c #A3B1D7",
"^ 	c #9CADD9",
"/ 	c #CAD2E6",
"( 	c #F9F9F8",
"_ 	c #FAFAF9",
": 	c #FAF9F9",
"< 	c #E5E5E5",
"[ 	c #D0D0D0",
"} 	c #607CCC",
"| 	c #667DC2",
"1 	c #7489C7",
"2 	c #909FCD",
"3 	c #FCFBFB",
"4 	c #B3BFE1",
"5 	c #CED4E6",
"6 	c #F9F9F9",
"7 	c #F2F2F3",
"8 	c #ABB8DF",
"9 	c #5C76C2",
"0 	c #0A2F99",
"a 	c #FBF8F0",
"b 	c #F8F8F8",
"c 	c #E5E7EE",
"d 	c #8799CF",
"e 	c #A7B3D2",
"f 	c #E1E3EA",
"g 	c #ECEDF0",
"h 	c #D9DBE3",
"i 	c #768BC8",
"j 	c #DEE1E9",
"k 	c #EAEBED",
"l 	c #294CB0",
"m 	c #F5F4F1",
"n 	c #ECEEF2",
"o 	c #8A9BCA",
"p 	c #385CB8",
"q 	c #4869B7",
"r 	c #768CC1",
"s 	c #B9C2DB",
"t 	c #768AC1",
"u 	c #274FB4",
"v 	c #6983C0",
"w 	c #CAD0DD",
"x 	c #123EAC",
"y 	c #0E40AF",
"z 	c #E8EAEC",
"A 	c #F1F2F4",
"B 	c #EDEFF3",
"C 	c #FCFBF8",
"D 	c #7C9FDA",
"E 	c #B3C4DE",
"F 	c #FBFAF7",
"G 	c #F6F6F5",
"H 	c #EBEBE9",
"I 	c #6B92D5",
"J 	c #F6F5F3",
"K 	c #EBEBEA",
"L 	c #356FD5",
"M 	c #4984E1",
"N 	c #5893E9",
"O 	c #91B3E4",
"P 	c #E5E9EF",
"Q 	c #EAEDEF",
"R 	c #F3F2F2",
"S 	c #F1F1F1",
"T 	c #EEEEEE",
"U 	c #DEE3EA",
"V 	c #A7BCD9",
"W 	c #B2C6E1",
"X 	c #DFE2E7",
"Y 	c #F2F2F2",
"Z 	c #E7E7E7",
"` 	c #F4F3F3",
" .	c #F0F0F0",
"..	c #EDEDED",
"+.	c #ECECEC",
"@.	c #E8E8E8",
"#.	c #E3E3E3",
"$.	c #E2E2E2",
"%.	c #E4E4E4",
"&.	c #E1E1E1",
"*.	c #C0C0C0",
"=.	c #C5C5C5",
"-.	c #C4C4C4",
";.	c #C3C3C3",
">.	c #C2C2C2",
",.	c #C1C1C1",
"'.	c #BDBDBD",
"    . + + @ @ # @ $ %           ",
"    & * * = = - - ; > ,         ",
"    ' ) ! * * = - - ; ~ {       ",
"    ] ^ / ( _ : * = - $ < [     ",
"  } | 1 2 3 4 5 * 6 7 8 - &     ",
"9 0 a _ b c d e f g h i j k     ",
"l   m b n o p q r s t u v w     ",
"x y z A B C D E F G H I J K     ",
"  L M N O G P Q R S T U T +     ",
"    V W X > Y S & & T T T Z     ",
"    @ ` Y  .& T T T ....+.$     ",
"    @. .& T T T ....+.# # <     ",
"    $ T T T ..+.+.# @ @ + #.    ",
"    < ....+.# # @ + @.@.Z $.    ",
"    %.+.+.# # @ + @.Z Z $ &.    ",
"    *.=.=.-.;.;.>.,.,.,.,.'.    "};
