/* XPM */
static char * hxx_xpm[] = {
"16 16 85 1",
" 	c None",
".	c #E0E0E0",
"+	c #EBEBEB",
"@	c #ECECEC",
"#	c #EDEDED",
"$	c #E8E8E8",
"%	c #DADADA",
"&	c #EFEFEF",
"*	c #FAFAFA",
"=	c #FBFBFB",
"-	c #FCFCFC",
";	c #FDFDFD",
">	c #F5F5F5",
",	c #CECECE",
"'	c #EEEEEE",
")	c #F8F8F8",
"!	c #F9F9F9",
"~	c #E3E3E3",
"{	c #E7E7E7",
"]	c #F7F7F7",
"^	c #FBFBFA",
"/	c #FFFFFB",
"(	c #FCFCFB",
"_	c #D5D5D5",
":	c #D4D4D4",
"<	c #F6F6F6",
"[	c #D3D9EA",
"}	c #728BD2",
"|	c #CDD4E6",
"1	c #D0D7E9",
"2	c #5876CB",
"3	c #B7C1DD",
"4	c #F9F9F8",
"5	c #F8F8F7",
"6	c #CFD6E8",
"7	c #133AB0",
"8	c #A1ADD0",
"9	c #6B81C4",
"0	c #778BC7",
"a	c #F6F5F3",
"b	c #F4F4F4",
"c	c #F3F3F3",
"d	c #B9C2DE",
"e	c #002AA6",
"f	c #1A3DA8",
"g	c #3B59B1",
"h	c #012FAA",
"i	c #8A9ACC",
"j	c #F1F1F1",
"k	c #F0F0F0",
"l	c #F2F2F2",
"m	c #B5C0DC",
"n	c #002AA9",
"o	c #A9B3D3",
"p	c #F1EFEC",
"q	c #083CB7",
"r	c #718CC8",
"s	c #B7C2DD",
"t	c #0B40B9",
"u	c #AFBDD8",
"v	c #EEECE8",
"w	c #225ECD",
"x	c #7E9DD3",
"y	c #F0F0EF",
"z	c #BAC7E0",
"A	c #2663D2",
"B	c #B4C3DB",
"C	c #EBE9E5",
"D	c #3C7FE5",
"E	c #89ABDD",
"F	c #E9E9E9",
"G	c #D1D9E5",
"H	c #82A4D8",
"I	c #CDD5E1",
"J	c #ECEBE9",
"K	c #88ACDE",
"L	c #B1C4DC",
"M	c #EAEAEA",
"N	c #E6E6E6",
"O	c #E5E5E5",
"P	c #CBCBCB",
"Q	c #CFCFCF",
"R	c #CDCDCD",
"S	c #CCCCCC",
"T	c #CACACA",
"  .++@@##$%     ",
"  &*==---;>,    ",
"  ')!**=--;~{   ",
"  #])^/(*=-_::  ",
"  @<)[}|))!**]  ",
"  #)!12345<<]!  ",
"  '))67890abc>  ",
"  ']<defghijkl  ",
"  #<>mnopqrk'j  ",
"  @bcstuvwxy'k  ",
"  +ljzABCDE'@&  ",
"  Fk&GHIJKL@M'  ",
"  {'''&#+#@MF@  ",
"  N'#@@+MMF${M  ",
"  O+++MF${NNNF  ",
"  PQQ,RSSPPTT,  "};
